<?xml version="1.0" encoding="UTF-8"?>
<svg version="1.1" xmlns="http://www.w3.org/2000/svg" width="1304" height="1301" viewBox="0 0 1300 1300">
<path d="M0 0 C1.715801 -0.00330383 3.43160051 -0.00747845 5.14739752 -0.0124402 C9.86028732 -0.02353447 14.57310416 -0.02223588 19.28600282 -0.01888502 C24.41433404 -0.01741966 29.54264496 -0.02747616 34.67096746 -0.03603506 C44.84159769 -0.05117926 55.01220692 -0.05558038 65.18284725 -0.05669317 C77.36594286 -0.05852203 89.5490191 -0.07186186 101.73210636 -0.08538682 C130.47943521 -0.11673416 159.22675785 -0.1288823 187.97409969 -0.13820088 C202.60614427 -0.14297054 217.23818702 -0.15037818 231.8702302 -0.15827507 C278.82774327 -0.18360328 325.78525626 -0.20516992 372.74277604 -0.21195599 C374.98643418 -0.21228047 377.23009232 -0.21261159 379.47375046 -0.21294476 C383.9732896 -0.21361234 388.47282874 -0.2142733 392.97236788 -0.21493387 C398.24000661 -0.21570766 403.50764534 -0.21648687 408.77528406 -0.217276 C410.28291347 -0.21750084 411.79054288 -0.21772368 413.29817229 -0.21794451 C461.69896607 -0.22504056 510.09970042 -0.25518621 558.50047153 -0.30182 C593.28596101 -0.33532199 628.07143923 -0.36626125 662.85694504 -0.37528992 C663.5729498 -0.37547689 664.28895456 -0.37566386 665.02665644 -0.3758565 C680.74804923 -0.37989541 696.46944184 -0.38220682 712.19083511 -0.38291367 C717.81697091 -0.383186 723.44310669 -0.38360397 729.06924247 -0.38410017 C730.46881154 -0.3842233 731.8683806 -0.38433994 733.26794967 -0.38445007 C755.5323779 -0.38628666 777.79674392 -0.40618639 800.0611517 -0.43536505 C823.12662001 -0.46547243 846.19200422 -0.47373917 869.2574953 -0.45717913 C882.54310866 -0.44828134 895.82846729 -0.45592827 909.11404707 -0.48765614 C918.00137894 -0.50721327 926.88853313 -0.50474505 935.77586352 -0.48478368 C940.83134584 -0.4740407 945.88634047 -0.4724444 950.9417816 -0.49780113 C1001.45833472 -0.73509331 1043.61523235 13.22151674 1081.05208397 48.26285553 C1082.00083397 49.14586334 1082.94958397 50.02887115 1083.92708397 50.93863678 C1116.42819248 81.88420953 1133.88596411 126.73428843 1135.16396791 171.15138865 C1135.36664274 181.85439687 1135.32495238 192.56115101 1135.30901908 203.26554784 C1135.30390764 208.19986189 1135.31048045 213.13416348 1135.31550574 218.06847572 C1135.32270422 226.7015575 1135.32252535 235.33461423 1135.31741142 243.96769714 C1135.30982743 256.80568516 1135.31372381 269.64365215 1135.31982804 282.48164004 C1135.33034652 305.41403911 1135.32945191 328.34642701 1135.32367021 351.27882713 C1135.31863545 371.3475808 1135.31732413 391.41633036 1135.3197155 411.48508453 C1135.31987046 412.83070171 1135.32002477 414.17631889 1135.32017844 415.52193607 C1135.32079941 420.92986218 1135.32143675 426.33778828 1135.32209797 431.74571437 C1135.32393169 446.86166772 1135.3250731 461.97762108 1135.32567024 477.09357452 C1135.32569753 477.78183143 1135.32572483 478.47008833 1135.32575294 479.1792015 C1135.3265711 501.09920716 1135.3243198 523.0192114 1135.31997108 544.93921661 C1135.31976034 546.00513178 1135.31976034 546.00513178 1135.31954533 547.09258059 C1135.31725563 558.63131135 1135.31481662 570.17004208 1135.31236499 581.70877281 C1135.30265285 627.46834076 1135.30310364 673.22789701 1135.31282616 718.9874649 C1135.31526868 730.52047474 1135.31769084 742.05348458 1135.31997108 753.58649445 C1135.32018243 754.6517915 1135.32018243 754.6517915 1135.32039804 755.7386097 C1135.32471254 777.63645217 1135.32653856 799.53429366 1135.32567024 821.43213654 C1135.32562949 822.46375696 1135.32562949 822.46375696 1135.32558791 823.51621821 C1135.32496287 838.61557826 1135.32369541 853.71493821 1135.32184924 868.81429817 C1135.321191 874.21729375 1135.32056483 879.62028933 1135.31994781 885.02328492 C1135.31979304 886.36732177 1135.31963558 887.71135863 1135.31947542 889.05539548 C1135.31701261 909.78049553 1135.31944941 930.50559055 1135.32467461 951.23069 C1135.33039601 974.03738839 1135.32895728 996.84407388 1135.31811312 1019.65077066 C1135.3122468 1032.40861009 1135.31184818 1045.1664216 1135.31940547 1057.9242603 C1135.32389969 1066.45309846 1135.32108202 1074.98191431 1135.31239593 1083.51074918 C1135.30765257 1088.36529059 1135.305982 1093.21977666 1135.31320789 1098.07431626 C1135.3760243 1143.60529119 1135.3760243 1143.60529119 1130.92708397 1162.13785553 C1130.71463036 1163.03802399 1130.50217674 1163.93819244 1130.28328514 1164.86563873 C1119.14725015 1209.90584198 1090.67301926 1249.33201573 1051.1568203 1273.695961 C1035.84711216 1282.88878082 1019.75434982 1289.92446549 1002.48958397 1294.51285553 C1001.56846825 1294.7592276 1000.64735252 1295.00559967 999.6983242 1295.25943756 C986.50562547 1298.61825432 973.53046269 1299.55750793 959.98375988 1299.51733112 C958.29163934 1299.5197255 956.59951986 1299.52299359 954.90740249 1299.52704772 C950.27428317 1299.53562933 945.64124537 1299.5318573 941.0081249 1299.525992 C935.96114949 1299.52180912 930.91418861 1299.52923077 925.86721677 1299.53514451 C917.02705717 1299.54389809 908.18692074 1299.54522161 899.34675789 1299.54164124 C886.2008029 1299.53633104 873.05487032 1299.54243275 859.90891777 1299.55072417 C835.74619775 1299.56554513 811.58348573 1299.56781412 787.42076278 1299.56540379 C783.99923635 1299.56506533 780.57770992 1299.56474323 777.15618348 1299.5644381 C776.47654301 1299.56437706 775.79690253 1299.56431602 775.0966669 1299.56425312 C760.02241107 1299.56298022 744.94815667 1299.56558446 729.87390127 1299.56896417 C726.42996894 1299.56973492 722.9860366 1299.57047965 719.54210427 1299.57122919 C718.15986747 1299.57153088 716.77763067 1299.57183276 715.39539387 1299.57213483 C714.36765352 1299.57235935 714.36765352 1299.57235935 713.31915074 1299.5725884 C711.93323592 1299.57289194 710.54732111 1299.57319662 709.16140629 1299.57350245 C669.8447266 1299.58217364 630.52804814 1299.58682073 591.21136761 1299.58255482 C590.48359261 1299.58247676 589.75581761 1299.5823987 589.00598882 1299.58231828 C580.89087647 1299.58144551 572.77576412 1299.58051625 564.66065178 1299.57956765 C563.56167949 1299.57943938 563.56167949 1299.57943938 562.44050574 1299.57930853 C556.35351536 1299.57859781 556.35351536 1299.57859781 553.55186645 1299.5782663 C506.69491622 1299.5727312 459.83798571 1299.5802715 412.98103905 1299.59903717 C401.17486545 1299.60375956 389.36869183 1299.60844015 377.56251812 1299.61287403 C376.47201977 1299.61328401 376.47201977 1299.61328401 375.35949116 1299.61370228 C352.94487651 1299.62207651 330.53026351 1299.62675352 308.11564732 1299.6275816 C307.41169357 1299.62760796 306.70773983 1299.62763433 305.98245416 1299.62766149 C290.52736098 1299.62820233 275.07226794 1299.62782969 259.61717481 1299.62662178 C254.08679209 1299.62619617 248.55640937 1299.62583104 243.02602664 1299.62549234 C241.6502662 1299.62540704 240.27450575 1299.6253181 238.89874531 1299.62522552 C216.99966992 1299.62377823 195.10060794 1299.63089341 173.20153577 1299.64222948 C150.52502183 1299.65389198 127.84852628 1299.65442873 105.17201123 1299.64238606 C92.10515102 1299.63575721 79.03835381 1299.63738916 65.97149864 1299.65097457 C57.23773989 1299.65922194 48.50402831 1299.65651773 39.77027339 1299.6449993 C34.79774522 1299.63874581 29.82533994 1299.63713459 24.85281888 1299.64886264 C20.31873756 1299.65945785 15.78488241 1299.65595601 11.25081293 1299.64175811 C9.63085796 1299.63905572 8.01088442 1299.64124367 6.39094706 1299.64926526 C-9.30193241 1299.7215963 -24.69788478 1297.72531903 -39.76041603 1293.20035553 C-40.75686134 1292.90362946 -41.75330666 1292.60690338 -42.77994728 1292.30118561 C-87.40254952 1278.45169898 -124.51771112 1246.45433339 -146.72770119 1205.60807037 C-152.38365882 1194.73749634 -156.87026925 1183.38920121 -160.32291603 1171.63785553 C-160.54946877 1170.87698639 -160.7760215 1170.11611725 -161.00943947 1169.33219147 C-165.05486717 1154.64090139 -166.3978063 1139.75326041 -166.32543945 1124.5792923 C-166.3285789 1122.88134286 -166.33303003 1121.18339544 -166.33865255 1119.48545241 C-166.35022972 1114.85942553 -166.34340085 1110.23358894 -166.33331869 1105.60756549 C-166.32565966 1100.55962311 -166.33550759 1095.51170831 -166.34304869 1090.46376991 C-166.35385225 1081.62966311 -166.35357449 1072.79561137 -166.34590721 1063.96150208 C-166.3345366 1050.82463654 -166.34037301 1037.68781726 -166.34953213 1024.55095202 C-166.36439997 1002.44447791 -166.36497466 980.33802046 -166.35680199 958.23154449 C-166.3565536 957.5593487 -166.35630521 956.8871529 -166.3560493 956.19458754 C-166.35580051 955.52130588 -166.35555172 954.84802422 -166.3552954 954.15434009 C-166.34771738 933.61907782 -166.3457756 913.08382447 -166.34936333 892.5485611 C-166.34959577 891.17192019 -166.34982724 889.79527927 -166.35005774 888.41863836 C-166.35098919 882.88609686 -166.35194519 877.35355537 -166.35293703 871.82101388 C-166.35568767 856.35652897 -166.35739975 840.89204403 -166.35829544 825.4275589 C-166.35833638 824.72341971 -166.35837732 824.01928052 -166.35841949 823.29380377 C-166.35964681 800.8663619 -166.35626932 778.43892314 -166.3497467 756.01148224 C-166.34953596 755.28437069 -166.34932521 754.55725914 -166.34910808 753.8081139 C-166.34567348 742.00127064 -166.34201498 730.19442744 -166.33833756 718.38758424 C-166.32376923 671.56409835 -166.32444542 624.74063819 -166.33902931 577.9171524 C-166.34269306 566.1161779 -166.34632629 554.3152034 -166.3497467 542.51422882 C-166.34995805 541.78753981 -166.35016939 541.0608508 -166.35038714 540.31214091 C-166.35685842 517.90747759 -166.35959801 495.5028164 -166.35829544 473.09815216 C-166.35825469 472.39453401 -166.35821393 471.69091587 -166.35817195 470.96597596 C-166.3572344 455.51849653 -166.35533325 440.07101733 -166.35256393 424.62353812 C-166.35157656 419.09602656 -166.35063731 413.56851499 -166.3497118 408.04100341 C-166.34947963 406.66597925 -166.34924344 405.29095508 -166.34900321 403.91593092 C-166.34542654 383.38765801 -166.34846376 362.85939517 -166.3560493 342.33112352 C-166.35629769 341.65892773 -166.35654607 340.98673193 -166.35680199 340.29416656 C-166.35705003 339.62321797 -166.35729808 338.95226938 -166.35755364 338.26098902 C-166.36583883 315.60239017 -166.36275751 292.94381262 -166.34695975 270.28521681 C-166.3381571 257.2294416 -166.33756694 244.17372778 -166.34889828 231.11795417 C-166.35563579 222.3917587 -166.35142 213.66561233 -166.33838397 204.93942412 C-166.3312636 199.97130636 -166.32877419 195.00331037 -166.33960192 190.03519654 C-166.34937383 185.50517539 -166.34506046 180.97538272 -166.33005994 176.44537786 C-166.32706744 174.82690605 -166.3289591 173.20841481 -166.33667775 171.58995864 C-166.40363545 156.46256715 -164.65086011 141.42882353 -160.32291603 126.88785553 C-160.07203224 126.03119293 -159.82114845 125.17453033 -159.56266212 124.29190826 C-145.81353916 79.21530601 -114.39123797 41.22490768 -72.90494728 19.07144928 C-58.54042824 11.61026706 -43.70205568 5.99145521 -27.94791603 2.26285553 C-27.20595985 2.0867858 -26.46400366 1.91071607 -25.69956396 1.7293109 C-17.14490697 -0.06075845 -8.69031825 -0.0204856 0 0 Z M0.38512677 100.17294234 C-0.3550658 100.25306979 -1.09525837 100.33319725 -1.85788102 100.41575281 C-20.20594496 102.59668583 -37.08153123 112.67730532 -49.00260353 126.64957428 C-63.98202114 146.77252685 -66.11181873 167.20213441 -66.07655048 191.61746502 C-66.07789952 193.24391542 -66.07968476 194.8703655 -66.08186272 196.496815 C-66.08656878 200.95223649 -66.08509885 205.40763742 -66.08258495 209.8630599 C-66.08094644 214.71567252 -66.08509721 219.56828083 -66.08849412 224.42089206 C-66.09364074 232.92131905 -66.0950666 241.42174034 -66.09403801 249.92216873 C-66.09251216 262.5629117 -66.09667688 275.20364837 -66.10191264 287.8443901 C-66.11158167 311.73503565 -66.1143967 335.62567906 -66.11496969 359.51632633 C-66.11542928 377.96552085 -66.11748787 396.41471452 -66.12067032 414.86390877 C-66.12156786 420.17499965 -66.12245768 425.48609054 -66.1233452 430.79718143 C-66.12345579 431.45705874 -66.12356637 432.11693604 -66.12368032 432.79680963 C-66.13000268 470.60103913 -66.13412961 508.40526835 -66.13367176 546.20949841 C-66.13365598 547.6236796 -66.13364025 549.0378608 -66.13362455 550.452042 C-66.13355117 556.83669229 -66.133463 563.22134259 -66.13337067 569.60599288 C-66.13332954 572.45296489 -66.1332894 575.29993691 -66.13324935 578.14690892 C-66.13322896 579.57186799 -66.13320794 580.99682707 -66.13318629 582.42178614 C-66.13250609 627.47778073 -66.13982334 672.53376745 -66.15372658 717.58975983 C-66.15722772 728.94200482 -66.16069724 740.29424981 -66.16399097 751.64649487 C-66.16419385 752.34553954 -66.16439672 753.04458422 -66.16460574 753.76481207 C-66.17082276 775.317262 -66.17458669 796.86971127 -66.17584896 818.42216206 C-66.17588891 819.09903097 -66.17592886 819.77589989 -66.17597002 820.47327999 C-66.17682338 835.33368275 -66.17708447 850.19408547 -66.17679965 865.05448826 C-66.17669116 871.03389999 -66.17664391 877.01331173 -66.17660904 882.99272346 C-66.17659738 884.300832 -66.17658573 885.60894054 -66.17657372 886.95668873 C-66.17654295 908.00477416 -66.18292797 929.05285295 -66.1915413 950.10093641 C-66.20001889 971.25478205 -66.20100689 992.40861798 -66.19443198 1013.56246438 C-66.19073715 1026.12739453 -66.19256674 1038.69229518 -66.20237432 1051.25722221 C-66.20837519 1059.65516587 -66.20707764 1068.05308816 -66.19990382 1076.45103084 C-66.19602329 1081.23257706 -66.19524393 1086.01406618 -66.20336118 1090.79560836 C-66.2106971 1095.15521589 -66.20863715 1099.51471934 -66.19943731 1103.8743224 C-66.19773192 1105.43225816 -66.19929147 1106.99020229 -66.20473852 1108.54812946 C-66.23132207 1116.70510764 -65.93434338 1124.74373078 -65.07298547 1132.85950023 C-64.99757115 1133.59026653 -64.92215683 1134.32103283 -64.84445723 1135.07394357 C-62.70619639 1153.36666054 -52.60085298 1170.01493616 -38.82291603 1181.95035553 C-19.72159158 1196.79511743 0.58129485 1199.42536498 24.22865391 1199.39148998 C25.86020026 1199.3928383 27.4917463 1199.39462313 29.12329176 1199.39680222 C33.60217282 1199.40151799 38.08103347 1199.40003517 42.5599155 1199.39752445 C47.43445244 1199.39588846 52.30898506 1199.40003463 57.18352062 1199.40343362 C65.72548329 1199.4085843 74.2674403 1199.4100054 82.80940437 1199.40897751 C95.51183523 1199.40745271 108.21425982 1199.41161405 120.91668947 1199.41685213 C144.92319043 1199.42652503 168.92968926 1199.42933635 192.93619194 1199.42990919 C211.47412426 1199.43036865 230.01205574 1199.43242657 248.54998779 1199.43560982 C253.88522698 1199.43650735 259.22046618 1199.43739727 264.55570537 1199.4382847 C265.55000393 1199.43845058 265.55000393 1199.43845058 266.56438933 1199.43861981 C304.54382417 1199.44494286 342.52325873 1199.44906904 380.50269413 1199.44861126 C381.92365706 1199.44859548 383.34461998 1199.44857975 384.76558291 1199.44856405 C391.18094687 1199.44849067 397.59631083 1199.4484025 404.01167479 1199.44831017 C406.872381 1199.44826904 409.7330872 1199.4482289 412.59379341 1199.44818885 C414.02562738 1199.44816846 415.45746135 1199.44814744 416.88929532 1199.44812579 C462.16320672 1199.44744558 507.4371103 1199.4547627 552.71101952 1199.46866608 C564.11793166 1199.47216718 575.52484381 1199.47563668 586.93175602 1199.47893047 C587.98535077 1199.47923478 587.98535077 1199.47923478 589.06023026 1199.47954524 C610.71366462 1199.4857616 632.36709834 1199.48952606 654.02053356 1199.49078846 C655.0404945 1199.49084839 655.0404945 1199.49084839 656.08106072 1199.49090952 C671.0091623 1199.49176286 685.93726384 1199.49202397 700.86536544 1199.49173915 C706.87194407 1199.49163066 712.87852269 1199.4915834 718.88510132 1199.49154854 C720.1991703 1199.49153688 721.51323929 1199.49152523 722.86712855 1199.49151322 C744.01800051 1199.49148244 765.16886588 1199.49786951 786.31973588 1199.5064808 C807.57460967 1199.5149555 828.8294738 1199.51594866 850.08434834 1199.50937148 C862.71189872 1199.50567468 875.33941974 1199.5075121 887.96696701 1199.51731382 C896.40416968 1199.52330967 904.84135108 1199.52202274 913.27855277 1199.51484332 C918.08419756 1199.51095853 922.88978551 1199.51019572 927.69542631 1199.51830067 C932.0745838 1199.52562154 936.45363753 1199.52359395 940.83279054 1199.51437681 C942.40005088 1199.51266747 943.96731952 1199.51424428 945.53457137 1199.51967802 C971.46214959 1199.60348833 994.18689498 1194.68349259 1013.42317772 1175.95426178 C1030.81577197 1157.6231127 1034.38252503 1135.90463948 1034.30376625 1111.61505795 C1034.3058568 1109.96887377 1034.30882246 1108.32269052 1034.31257498 1106.67650929 C1034.32032739 1102.1709723 1034.31572202 1097.6655216 1034.30901908 1093.15998609 C1034.30393007 1088.25140469 1034.31047168 1083.34283617 1034.31550574 1078.43425661 C1034.32272036 1069.83726024 1034.32251536 1061.240289 1034.31741142 1052.64329147 C1034.30984233 1039.85924017 1034.31371609 1027.07521004 1034.31982804 1014.29115887 C1034.33035794 991.45832466 1034.32944738 968.62550165 1034.32367021 945.79266637 C1034.31863948 925.81191385 1034.31732223 905.83116562 1034.3197155 885.85041237 C1034.31987046 884.51175455 1034.32002477 883.17309674 1034.32017844 881.83443892 C1034.32079939 876.45476793 1034.32143672 871.07509694 1034.32209797 865.69542596 C1034.32393186 850.65766623 1034.32507315 835.61990648 1034.32567024 820.58214664 C1034.32571118 819.55502641 1034.32571118 819.55502641 1034.32575294 818.50715628 C1034.32657133 796.6926056 1034.32431856 774.87805635 1034.31997108 753.06350613 C1034.31983059 752.35610996 1034.31969009 751.64871379 1034.31954533 750.91988138 C1034.31725551 739.43264042 1034.31481655 727.94539949 1034.31236499 716.45815857 C1034.30265197 670.89752953 1034.30310381 625.33691225 1034.31282616 579.77628326 C1034.31526858 568.29360931 1034.3176907 556.81093536 1034.31997108 545.32826138 C1034.32011198 544.62120901 1034.32025288 543.91415665 1034.32039804 543.18567846 C1034.32471102 521.39270921 1034.32653885 499.59974094 1034.32567024 477.80677128 C1034.32564307 477.12254247 1034.32561591 476.43831366 1034.32558791 475.73335064 C1034.32496293 460.71283737 1034.3236956 445.6923242 1034.32184924 430.67181104 C1034.32119097 425.2973009 1034.3205648 419.92279075 1034.31994781 414.54828061 C1034.31979304 413.21127278 1034.31963558 411.87426495 1034.31947542 410.53725713 C1034.31701024 389.90054456 1034.31945376 369.26383839 1034.32467461 348.62712669 C1034.33038985 325.9229225 1034.3289704 303.21873126 1034.31811312 280.51452868 C1034.31223654 267.80634911 1034.31186301 255.09819757 1034.31940547 242.39001872 C1034.32388731 233.90300437 1034.32110437 225.4160125 1034.31239593 216.92900148 C1034.30763541 212.09250058 1034.30601792 207.25605541 1034.31320789 202.41955625 C1034.31968759 198.01594714 1034.31689617 193.61244298 1034.30684657 189.20884145 C1034.30483947 187.62937354 1034.30614535 186.04989686 1034.31125845 184.47043595 C1034.38692048 159.3035029 1028.77186433 138.26658647 1010.83724022 119.91910553 C991.31590672 101.30128396 967.34387396 99.09717454 941.69747448 99.13422108 C940.07102408 99.13287204 938.444574 99.1310868 936.8181245 99.12890884 C932.36270301 99.12420278 927.90730207 99.12567271 923.4518796 99.12818661 C918.59926698 99.12982512 913.74665867 99.12567435 908.89404744 99.12227744 C900.39362045 99.11713082 891.89319916 99.11570496 883.39277077 99.11673355 C870.7520278 99.1182594 858.11129113 99.11409468 845.47054939 99.10885893 C821.57990385 99.09918989 797.68926044 99.09637486 773.79861317 99.09580187 C755.34941865 99.09534228 736.90022498 99.09328369 718.45103073 99.09010124 C713.13993985 99.0892037 707.82884896 99.08831388 702.51775807 99.08742636 C701.85788076 99.08731578 701.19800346 99.08720519 700.51812986 99.08709125 C662.71390036 99.08076888 624.90967115 99.07664195 587.10544109 99.0770998 C585.69125989 99.07711558 584.2770787 99.07713131 582.8628975 99.07714701 C576.4782472 99.07722039 570.09359691 99.07730856 563.70894662 99.07740089 C560.8619746 99.07744202 558.01500259 99.07748216 555.16803058 99.07752221 C553.7430715 99.0775426 552.31811243 99.07756362 550.89315335 99.07758527 C505.83715877 99.07826547 460.78117205 99.07094822 415.72517967 99.05704498 C404.37293468 99.05354384 393.02068969 99.05007432 381.66844463 99.04678059 C380.96939995 99.04657771 380.27035528 99.04637484 379.55012742 99.04616582 C357.9976775 99.0399488 336.44522822 99.03618487 314.89277744 99.0349226 C314.21590852 99.03488265 313.53903961 99.0348427 312.84165951 99.03480154 C297.98125675 99.03394818 283.12085402 99.03368709 268.26045124 99.03397191 C262.28103951 99.0340804 256.30162777 99.03412765 250.32221603 99.03416252 C249.0141075 99.03417418 247.70599896 99.03418583 246.35825077 99.03419784 C225.31016534 99.03422861 204.26208655 99.02784359 183.21400309 99.01923026 C162.06015745 99.01075268 140.90632152 99.00976467 119.75247512 99.01633958 C107.18754496 99.02003441 94.62264432 99.01820482 82.05771729 99.00839724 C73.65977363 99.00239637 65.26185134 99.00369392 56.86390866 99.01086774 C52.08236244 99.01474827 47.30087332 99.01552763 42.51933113 99.00741038 C38.15972361 99.00007446 33.80022016 99.00213441 29.4406171 99.01133425 C27.88268134 99.01303964 26.32473721 99.01148009 24.76681004 99.00603304 C16.58111303 98.9793559 8.5275581 99.28811022 0.38512677 100.17294234 Z " fill="#081060" transform="translate(166.9479160308838,-0.26285552978515625)"/>
<path d="M0 0 C66 0 132 0 200 0 C200 28.71 200 57.42 200 87 C203.05156457 83.94843543 204.94908366 80.82289659 207.0625 77.125 C227.9353306 41.62360454 261.76998807 17.55611122 301.37060547 6.88842773 C319.18636595 2.34678086 337.49435192 -0.12858785 355.875 -0.203125 C357.55916016 -0.21167511 357.55916016 -0.21167511 359.27734375 -0.22039795 C361.65070672 -0.22980237 364.02408249 -0.23636368 366.39746094 -0.24023438 C369.93449506 -0.24982243 373.47091723 -0.28084108 377.0078125 -0.3125 C429.8784279 -0.55914924 488.01872835 11.73717477 527.3515625 49.4921875 C529.2481954 51.28811423 531.12738241 52.96165254 533.140625 54.61328125 C536.91639337 57.76491305 539.90663572 61.18657886 543 65 C543.42555176 65.52432617 543.85110352 66.04865234 544.28955078 66.58886719 C563.32775817 90.31534091 575.77510532 117.84595883 584 147 C584.26264648 147.92828613 584.52529297 148.85657227 584.79589844 149.81298828 C591.29711723 173.2422879 594.76862108 197.110076 597.25 221.25 C597.33308411 222.05494904 597.41616821 222.85989807 597.50177002 223.6892395 C597.74187931 226.04745787 597.97426642 228.40629001 598.203125 230.765625 C598.26956207 231.43055466 598.33599915 232.09548431 598.40444946 232.78056335 C598.62983327 235.18545429 598.81628339 237.59152425 599 240 C599.08380511 241.07732706 599.16761023 242.15465412 599.25395489 243.26462746 C600.26776669 258.49747739 600.13607095 273.74464409 600.11606562 289.00288367 C600.11170123 293.18665541 600.11321175 297.37042585 600.1139679 301.55419922 C600.11448937 308.78285216 600.11138211 316.01149599 600.10573006 323.24014664 C600.09756375 333.69124792 600.0949946 344.14234485 600.09374207 354.59344898 C600.09155957 371.55432655 600.08492133 388.51519928 600.07543945 405.47607422 C600.06624452 421.94091773 600.05918537 438.40575991 600.05493164 454.87060547 C600.05466364 455.89776755 600.05439565 456.92492963 600.05411953 457.98321784 C600.05203981 466.01765153 600.05008299 474.05208526 600.04816496 482.086519 C600.03875059 521.39101711 600.01862772 560.69550309 600 600 C534 600 468 600 400 600 C399.93941406 578.81296875 399.87882812 557.6259375 399.81640625 535.796875 C399.77589306 522.34374825 399.73515329 508.89062275 399.69335938 495.4375 C399.67139828 488.36458355 399.64949419 481.29166692 399.62768555 474.21875 C399.62495036 473.33245234 399.62221517 472.44615468 399.6193971 471.53299952 C399.5755026 457.282762 399.53481732 443.03251708 399.49534739 428.78226671 C399.45467367 414.12359943 399.41048169 399.4649457 399.36312145 384.80629849 C399.33407931 375.78394462 399.30768001 366.76159139 399.28482103 357.7392197 C399.26881442 351.52594844 399.24934611 345.31269362 399.22733159 339.09944078 C399.21478659 335.53150376 399.20359777 331.96357861 399.19658089 328.39562607 C399.16831987 314.56247584 399.03540408 300.74195881 398.56919861 286.91583252 C398.53336625 285.80818566 398.49753389 284.7005388 398.46061569 283.55932689 C397.2651301 251.72242844 392.33181741 217.72904218 368.5625 194.4375 C347.72617227 176.3244613 319.24789888 174.8033233 293 176 C269.01199321 177.77455874 244.87850851 186.56235525 228.53125 204.74609375 C205.43956996 233.88747763 202.29968062 273.2959816 201.43774414 309.07080078 C201.4077886 310.24744274 201.4077886 310.24744274 201.3772279 311.44785523 C200.75134924 336.62510357 200.77462351 361.8140298 200.70291763 386.99761003 C200.68166563 394.40193835 200.6553077 401.80624634 200.62875474 409.21055724 C200.58156332 422.40566081 200.53817448 435.60077385 200.49731445 448.79589844 C200.4577084 461.58334077 200.41621604 474.37077479 200.37231445 487.15820312 C200.36956495 487.95972754 200.36681544 488.76125195 200.36398262 489.58706498 C200.34245262 495.85922365 200.32081621 502.13138195 200.29914629 508.40354013 C200.19368668 538.93567635 200.09747397 569.46783522 200 600 C134 600 68 600 0 600 C0 402 0 204 0 0 Z " fill="#081060" transform="translate(501,499)"/>
<path d="M0 0 C66 0 132 0 200 0 C200 198 200 396 200 600 C134 600 68 600 0 600 C0 402 0 204 0 0 Z " fill="#091161" transform="translate(201,499)"/>
<path d="M0 0 C18.90565154 15.94744149 32.80795819 38.85700416 35.4375 63.75 C36.31479086 77.75354847 36.77454314 92.26478084 32.4375 105.75 C31.94443359 107.420625 31.94443359 107.420625 31.44140625 109.125 C23.22456676 134.60004563 5.27958349 155.37002058 -18.37109375 167.7421875 C-41.39295315 179.13657141 -69.85584273 182.20679548 -94.53759766 174.44335938 C-121.23726785 165.30095964 -142.77129717 147.18040611 -155.5390625 121.93359375 C-166.64284448 98.82001212 -168.91352973 70.13853543 -160.5625 45.75 C-151.00728056 19.19211066 -132.2452618 -1.93754451 -106.79663086 -14.16308594 C-71.07064675 -30.35781037 -30.38927834 -23.85303691 0 0 Z " fill="#08105E" transform="translate(365.5625,221.25)"/>
</svg>
