<?xml version="1.0" encoding="UTF-8"?>
<svg version="1.1" xmlns="http://www.w3.org/2000/svg" width="945" height="950" viewBox="0 0 945 945">
<path d="M0 0 C0.67782217 -0.00490637 1.35564434 -0.00981274 2.05400658 -0.01486778 C61.76869614 -0.44251321 61.76869614 -0.44251321 88.4375 4.23828125 C89.22181396 4.37403564 90.00612793 4.50979004 90.81420898 4.6496582 C182.95831717 20.70650691 267.17116683 60.01387122 336.4375 123.23828125 C337.34757813 124.05554688 338.25765625 124.8728125 339.1953125 125.71484375 C349.42865037 134.96578119 359.69211424 144.49534916 368.59375 155.0546875 C370.13319092 156.87788131 371.69767482 158.66853398 373.28125 160.453125 C381.46685581 169.71329391 389.07388023 179.3149375 396.4375 189.23828125 C396.97906738 189.96418457 397.52063477 190.69008789 398.07861328 191.43798828 C411.28131269 209.18928623 422.7625544 227.87256777 433.4375 247.23828125 C433.9325 248.13498535 434.4275 249.03168945 434.9375 249.95556641 C472.06344572 317.76600958 490.7446451 395.87253615 490.625 473.05078125 C490.62406342 473.84742188 490.62312683 474.6440625 490.62216187 475.46484375 C490.5282488 512.77099837 486.31160304 549.9813785 477.4375 586.23828125 C477.14504395 587.4396875 476.85258789 588.64109375 476.55126953 589.87890625 C460.71015067 654.01489198 431.8049877 714.7261876 390.74365234 766.56738281 C388.17194952 769.85723965 385.74948492 773.25567582 383.31640625 776.6484375 C382.69636719 777.50308594 382.07632813 778.35773437 381.4375 779.23828125 C381.00477783 779.83946777 380.57205566 780.4406543 380.1262207 781.06005859 C376.55186584 785.94121129 372.67846068 790.36880197 368.5 794.73828125 C367.25031194 796.05895961 366.00160035 797.3805627 364.75390625 798.703125 C363.87822998 799.6310083 363.87822998 799.6310083 362.98486328 800.57763672 C361.248089 802.44155888 359.58116614 804.35444513 357.9375 806.30078125 C350.76025426 814.62857783 342.72650559 822.51883771 334.3359375 829.6171875 C332.10849967 831.51921775 329.96727029 833.50435845 327.8125 835.48828125 C322.21006758 840.53643953 316.32215799 845.1607255 310.35009766 849.75830078 C308.42489724 851.24803335 306.5145228 852.75527605 304.60546875 854.265625 C242.79652454 902.81354818 169.03114444 932.52029268 91.875 945.55078125 C90.79401535 945.73571136 90.79401535 945.73571136 89.69119263 945.92437744 C67.92289635 949.61239844 46.38312209 950.5909954 24.33862305 950.55395508 C21.37525187 950.5493386 18.41229264 950.55620668 15.44897461 950.57446289 C-74.34117624 951.12192355 -160.18371319 921.01847043 -300.5 823.08984375 C-302.73166727 820.98459463 -305.02271492 818.96648331 -307.34765625 816.96484375 C-318.99486475 806.82300028 -330.32569939 795.64105239 -339.5625 783.23828125 C-340.30064941 782.25021484 -340.30064941 782.25021484 -341.05371094 781.2421875 C-344.63435562 776.43986146 -348.17766425 771.61090406 -351.70996094 766.77294922 C-354.15837932 763.42299143 -356.61708387 760.08068193 -359.078125 756.73999023 C-360.27203362 755.11929173 -361.4647507 753.49771475 -362.65625 751.87524414 C-365.09197487 748.56297519 -367.52983472 745.25676861 -370.0546875 742.01171875 C-421.7288582 675.25825268 -453.82743886 580.72691658 -453.8984375 496.57421875 C-453.90489918 494.72604277 -453.91162971 492.8778677 -453.91860962 491.0296936 C-453.93048373 487.17569623 -453.93430127 483.32178776 -453.93310547 479.46777344 C-453.9329439 475.589652 -453.94669251 471.7120079 -453.97412109 467.83398438 C-454.14025768 443.9607798 -453.44125638 420.83160193 -449.5625 397.23828125 C-449.41520447 396.32167725 -449.26790894 395.40507324 -449.1161499 394.46069336 C-448.29845909 389.46267856 -447.3499408 384.50775273 -446.3125 379.55078125 C-446.16598999 378.83812103 -446.01947998 378.12546082 -445.86853027 377.39120483 C-430.43035014 302.49880015 -397.07099856 230.73230802 -347.5625 172.23828125 C-346.70511334 171.20754319 -345.84837495 170.17626565 -344.9921875 169.14453125 C-334.84750234 156.96725002 -323.99749623 145.58236458 -312.8125 134.36328125 C-312.31681519 133.8649176 -311.82113037 133.36655396 -311.3104248 132.85308838 C-305.57566748 127.09484545 -299.76821786 121.49045847 -293.5625 116.23828125 C-292.50627955 115.325788 -291.45027757 114.41304177 -290.39453125 113.5 C-265.00153399 91.85189496 -237.53522031 73.70986779 -208.5625 57.23828125 C-207.85383789 56.83480469 -207.14517578 56.43132813 -206.41503906 56.015625 C-169.10476789 34.96183325 -127.20624929 20.69095757 -85.5625 11.23828125 C-84.4497168 10.98449707 -83.33693359 10.73071289 -82.19042969 10.46923828 C-55.14849288 4.38762329 -27.76104807 0.16338383 0 0 Z M-37.125 76.98828125 C-37.83624023 77.57738281 -38.54748047 78.16648437 -39.28027344 78.7734375 C-41.40993642 80.55818871 -43.48995967 82.38770852 -45.5625 84.23828125 C-46.15981934 84.76099609 -46.75713867 85.28371094 -47.37255859 85.82226562 C-51.20743157 89.18947116 -54.90546803 92.67969043 -58.5625 96.23828125 C-59.11421875 96.76953613 -59.6659375 97.30079102 -60.234375 97.84814453 C-67.56423529 104.92372928 -74.25167459 112.22590224 -80.5625 120.23828125 C-81.46880063 121.33414809 -82.3777988 122.42778795 -83.2890625 123.51953125 C-100.10220828 143.8140733 -113.61217647 166.72436517 -125.875 189.98828125 C-126.3496167 190.88804687 -126.8242334 191.7878125 -127.31323242 192.71484375 C-127.74224854 193.54242188 -128.17126465 194.37 -128.61328125 195.22265625 C-128.99137939 195.95194336 -129.36947754 196.68123047 -129.7590332 197.43261719 C-130.69801319 199.21343303 -130.69801319 199.21343303 -130.5625 201.23828125 C-92.2825 201.23828125 -54.0025 201.23828125 -14.5625 201.23828125 C-14.5625 158.33828125 -14.5625 115.43828125 -14.5625 71.23828125 C-27.83351242 70.70999389 -27.83351242 70.70999389 -37.125 76.98828125 Z M53.4375 71.23828125 C53.4375 114.13828125 53.4375 157.03828125 53.4375 201.23828125 C91.7175 201.23828125 129.9975 201.23828125 169.4375 201.23828125 C161.55864176 184.58595795 161.55864176 184.58595795 152.625 168.61328125 C152.28433502 168.04421051 151.94367004 167.47513977 151.59268188 166.88882446 C145.66700278 156.99722761 139.39490567 147.4348801 132.4375 138.23828125 C131.98068848 137.63274414 131.52387695 137.02720703 131.05322266 136.40332031 C128.35485735 132.85077556 125.59782941 129.35190782 122.78222656 125.89160156 C121.49919494 124.31413421 120.22970573 122.72568086 118.9609375 121.13671875 C112.11337098 112.74693081 104.5055925 105.0948838 96.875 97.42578125 C96.34428894 96.88980316 95.81357788 96.35382507 95.26678467 95.80160522 C89.02383537 89.51083708 82.68594781 83.59090774 75.73608398 78.07763672 C73.4375 76.23828125 73.4375 76.23828125 71.66821289 74.58251953 C65.69541528 69.34985117 62.71342445 71.23828125 53.4375 71.23828125 Z M-159.5625 109.23828125 C-182.55106179 121.36473013 -204.82318126 134.53504708 -225.5625 150.23828125 C-226.7395563 151.11852573 -227.91663841 151.99873571 -229.09375 152.87890625 C-240.41537509 161.41073705 -251.10578621 170.67516968 -261.5625 180.23828125 C-262.64960345 181.22020282 -263.73685132 182.20196452 -264.82421875 183.18359375 C-273.73615841 191.19204228 -273.73615841 191.19204228 -281.5625 200.23828125 C-281.5625 200.56828125 -281.5625 200.89828125 -281.5625 201.23828125 C-256.8125 201.23828125 -232.0625 201.23828125 -206.5625 201.23828125 C-202.6025 192.32828125 -198.6425 183.41828125 -194.5625 174.23828125 C-185.43002302 154.52043322 -175.67631556 135.66083774 -163.21899414 117.83276367 C-162.73938232 117.13900635 -162.25977051 116.44524902 -161.765625 115.73046875 C-161.33926758 115.1257373 -160.91291016 114.52100586 -160.47363281 113.89794922 C-159.32188225 112.11553891 -159.32188225 112.11553891 -159.5625 109.23828125 Z M193.4375 110.23828125 C193.80359375 110.8003125 194.1696875 111.36234375 194.546875 111.94140625 C211.97969422 139.00378275 227.86956843 167.4712309 239.37890625 197.59765625 C240.18992896 200.12178225 240.18992896 200.12178225 241.4375 201.23828125 C243.78003782 201.33320847 246.09296104 201.36387916 248.43579102 201.35180664 C249.16745483 201.35195267 249.89911865 201.35209869 250.6529541 201.35224915 C253.08246784 201.35154992 255.51190583 201.3437571 257.94140625 201.3359375 C259.62149514 201.33407335 261.30158457 201.33264944 262.98167419 201.33164978 C267.41223643 201.32782432 271.8427661 201.31799381 276.27331543 201.3069458 C280.79092976 201.29673228 285.30854934 201.29215229 289.82617188 201.28710938 C298.69662893 201.27637156 307.56706176 201.25929481 316.4375 201.23828125 C305.34984859 188.10150694 293.04766825 175.75257432 279.4375 165.23828125 C278.26346432 164.26849982 277.09317904 163.29416807 275.92578125 162.31640625 C255.09115098 144.926456 232.25426755 130.21310804 208.41015625 117.31054688 C206.57843911 116.31489073 204.75625544 115.30425008 202.9375 114.28515625 C201.9475 113.7334375 200.9575 113.18171875 199.9375 112.61328125 C199.1021875 112.14664063 198.266875 111.68 197.40625 111.19921875 C195.50306949 110.09206978 195.50306949 110.09206978 193.4375 110.23828125 Z M265.4375 268.23828125 C266.56958709 274.25810941 267.8893371 280.2095244 269.35546875 286.15625 C278.94514241 325.16598373 285.68206202 364.38413269 289.125 404.42578125 C289.18602905 405.10562073 289.24705811 405.78546021 289.30993652 406.48590088 C290.85881958 424.04435051 290.94758392 441.60130247 291.4375 459.23828125 C335.6575 459.23828125 379.8775 459.23828125 425.4375 459.23828125 C423.96355263 437.61060431 423.96355263 437.61060431 421.1875 416.23828125 C421.08078979 415.58193695 420.97407959 414.92559265 420.86413574 414.24935913 C413.0145329 366.06470841 397.21723313 319.8843336 373.48828125 277.17431641 C372.78092647 275.87103495 372.11186895 274.54631527 371.48046875 273.20458984 C369.95681135 270.11730255 369.12219573 268.47156254 365.7890625 267.3359375 C364.68304687 267.30371094 363.57703125 267.27148438 362.4375 267.23828125 C361.00780585 267.13290263 359.57811908 267.02742403 358.1484375 266.921875 C311.54744767 263.73955573 311.54744767 263.73955573 265.4375 268.23828125 Z M-330.5625 269.23828125 C-358.94379836 322.21670485 -379.18744663 375.5473222 -385.8125 435.48828125 C-385.93286621 436.55852539 -385.93286621 436.55852539 -386.05566406 437.65039062 C-386.6814799 443.92019204 -386.5625 449.84251439 -386.5625 456.23828125 C-342.6725 456.23828125 -298.7825 456.23828125 -253.5625 456.23828125 C-252.5725 438.08828125 -251.5825 419.93828125 -250.5625 401.23828125 C-249.42141906 389.51269089 -248.23049901 377.88628088 -246.5625 366.23828125 C-246.41101501 365.16489502 -246.41101501 365.16489502 -246.25646973 364.06982422 C-243.55748909 345.00807676 -240.07385215 326.16519305 -235.9375 307.36328125 C-235.74958893 306.50909607 -235.56167786 305.65491089 -235.36807251 304.77484131 C-233.24583645 295.18956892 -230.95544188 285.68559053 -228.28369141 276.23779297 C-227.40665066 273.10425293 -227.40665066 273.10425293 -227.5625 269.23828125 C-261.5525 269.23828125 -295.5425 269.23828125 -330.5625 269.23828125 Z M-158.5625 269.23828125 C-162.4874241 281.6027133 -162.4874241 281.6027133 -165.95703125 294.07421875 C-166.15026978 294.82462936 -166.3435083 295.57503998 -166.54260254 296.34819031 C-167.16114501 298.76800991 -167.76998932 301.19004436 -168.375 303.61328125 C-168.58804779 304.46566376 -168.80109558 305.31804626 -169.02059937 306.19625854 C-181.53303399 356.58322971 -188.5625 407.2797478 -188.5625 459.23828125 C-131.1425 459.23828125 -73.7225 459.23828125 -14.5625 459.23828125 C-14.5625 396.53828125 -14.5625 333.83828125 -14.5625 269.23828125 C-62.0825 269.23828125 -109.6025 269.23828125 -158.5625 269.23828125 Z M53.4375 269.23828125 C53.4375 331.93828125 53.4375 394.63828125 53.4375 459.23828125 C110.5275 459.23828125 167.6175 459.23828125 226.4375 459.23828125 C226.69604761 432.64507809 226.69604761 432.64507809 225.25 406.23828125 C225.11553533 404.75529194 224.98109614 403.27230032 224.84667969 401.78930664 C220.79210481 331.21953426 220.79210481 331.21953426 196.4375 269.23828125 C194.58988732 269.14179877 192.7385419 269.11640807 190.88841248 269.11802673 C189.68633117 269.11664924 188.48424986 269.11527174 187.24574184 269.1138525 C185.89616816 269.11739976 184.54659471 269.12103766 183.19702148 269.12475586 C181.76513961 269.12506197 180.33325758 269.12492908 178.90137577 269.1243906 C175.05396079 269.1241641 171.20657668 269.12997551 167.35916901 269.13700104 C163.75380858 269.14268035 160.1484558 269.1429633 156.54309082 269.14367676 C145.98705643 269.14893184 135.43102783 269.16289288 124.875 269.17578125 C101.300625 269.19640625 77.72625 269.21703125 53.4375 269.23828125 Z M291.4375 524.23828125 C290.4475 535.78828125 289.4575 547.33828125 288.4375 559.23828125 C287.64774003 565.78850257 286.83571729 572.29022403 285.8125 578.80078125 C285.62692032 580.0086731 285.62692032 580.0086731 285.43759155 581.2409668 C279.03800534 622.62326342 268.73513639 663.29936224 255.43383789 702.98901367 C255.0393042 704.17084229 254.64477051 705.3526709 254.23828125 706.5703125 C253.88934814 707.59874268 253.54041504 708.62717285 253.1809082 709.68676758 C252.29763582 712.27538625 252.29763582 712.27538625 252.4375 715.23828125 C263.44222948 715.58712963 274.44562758 715.85298667 285.45477676 716.01546383 C290.56820307 716.09348483 295.67782585 716.19911561 300.7890625 716.36987305 C305.73018899 716.53389813 310.66768034 716.62274341 315.6113205 716.6614399 C317.4887593 716.68897917 319.36601719 716.74276897 321.24188995 716.8242321 C331.33962103 717.4691256 331.33962103 717.4691256 340.40293884 713.7666111 C343.96599639 710.2271078 346.74765423 706.2562682 349.36122894 701.98337364 C350.7087202 699.79851814 352.23642826 697.78194692 353.8125 695.7578125 C354.6945995 694.52719342 355.56976768 693.29157272 356.4375 692.05078125 C356.92476562 691.35484863 357.41203125 690.65891602 357.9140625 689.94189453 C391.42467445 641.38372894 412.5675675 582.93760621 418.4375 524.23828125 C376.5275 524.23828125 334.6175 524.23828125 291.4375 524.23828125 Z M71.75 525.68359375 C69.96106323 525.74170731 69.96106323 525.74170731 68.13598633 525.80099487 C63.08129002 525.99448171 58.45943383 526.40129228 53.4375 527.23828125 C53.4375 590.26828125 53.4375 653.29828125 53.4375 718.23828125 C95.3475 718.23828125 137.2575 718.23828125 180.4375 718.23828125 C187.55236824 700.4985971 187.55236824 700.4985971 193.8125 682.48828125 C194.03917358 681.78538971 194.26584717 681.08249817 194.49938965 680.35830688 C206.61152347 642.56934903 214.25567562 603.72665614 219.8125 564.48828125 C219.94023804 563.59434662 220.06797607 562.70041199 220.19958496 561.77938843 C221.82812702 550.27332111 222.94912947 538.84980915 223.4375 527.23828125 C217.31966715 526.13353221 211.32902248 525.88513123 205.125 525.68359375 C203.83376221 525.64154816 202.54252441 525.59950256 201.2121582 525.55618286 C182.46525034 524.99711938 163.70537658 525.08805285 144.95214844 525.10791016 C139.52705218 525.11360686 134.10200498 525.1102176 128.6769104 525.10447311 C100.20934591 525.07661472 100.20934591 525.07661472 71.75 525.68359375 Z M-383.5625 527.23828125 C-382.31050721 537.2542236 -381.02762114 546.8742416 -378.875 556.67578125 C-378.61372314 557.87315918 -378.35244629 559.07053711 -378.08325195 560.30419922 C-366.41687709 612.64933578 -345.60371949 665.18675689 -311.84375 707.38671875 C-309.5625 710.23828125 -309.5625 710.23828125 -308.709198 712.23928833 C-307.29854348 715.02737681 -306.13381292 716.41863461 -303.5625 718.23828125 C-297.10646391 719.41390833 -290.70389028 719.1684137 -284.1640625 719.01953125 C-282.24452067 719.00460185 -280.32494826 718.99321813 -278.40536499 718.98522949 C-273.36410686 718.9547501 -268.32470617 718.87622405 -263.28417969 718.78759766 C-258.13632331 718.70561508 -252.98816541 718.66919156 -247.83984375 718.62890625 C-237.74658175 718.54322514 -227.6546956 718.40676946 -217.5625 718.23828125 C-217.87160346 716.81164256 -218.18290563 715.38548016 -218.49511719 713.95951843 C-218.75479279 712.76815041 -218.75479279 712.76815041 -219.01971436 711.55271435 C-219.76273256 708.38449142 -220.76366347 705.33724027 -221.8125 702.2578125 C-222.25618524 700.93619955 -222.69910201 699.61432843 -223.14135742 698.29223633 C-223.37277435 697.60352448 -223.60419128 696.91481262 -223.84262085 696.20523071 C-242.28555518 641.00934133 -251.85947162 585.24229788 -256.5625 527.23828125 C-298.4725 527.23828125 -340.3825 527.23828125 -383.5625 527.23828125 Z M-188.5625 527.23828125 C-187.69036179 541.30308563 -187.69036179 541.30308563 -186.05444336 555.25463867 C-185.90505814 556.28625626 -185.90505814 556.28625626 -185.75265503 557.3387146 C-185.64865387 558.04807159 -185.54465271 558.75742859 -185.4375 559.48828125 C-185.32890656 560.23494049 -185.22031311 560.98159973 -185.10842896 561.75088501 C-177.2490554 615.38912021 -162.67779456 666.89239756 -145.5625 718.23828125 C-103.6525 718.23828125 -61.7425 718.23828125 -18.5625 718.23828125 C-18.5625 655.20828125 -18.5625 592.17828125 -18.5625 527.23828125 C-74.6625 527.23828125 -130.7625 527.23828125 -188.5625 527.23828125 Z M-237.5625 783.23828125 C-235.9125 784.88828125 -234.2625 786.53828125 -232.5625 788.23828125 C-231.64210937 789.22828125 -231.64210937 789.22828125 -230.703125 790.23828125 C-213.14646564 808.81061511 -185.54762976 827.71526478 -160.5625 834.23828125 C-159.5725 833.90828125 -158.5825 833.57828125 -157.5625 833.23828125 C-157.91852295 832.63693359 -158.2745459 832.03558594 -158.64135742 831.41601562 C-167.99119227 815.59022767 -177.33784022 799.68760081 -185.5625 783.23828125 C-202.7225 783.23828125 -219.8825 783.23828125 -237.5625 783.23828125 Z M-107.5625 786.23828125 C-103.83593609 792.44922111 -100.17506044 798.47939867 -96 804.36328125 C-95.48969238 805.08338379 -94.97938477 805.80348633 -94.45361328 806.54541016 C-86.56715871 817.54424479 -77.95611359 827.93644891 -68.7578125 837.859375 C-66.81012165 839.96995103 -64.92836777 842.11814989 -63.0625 844.30078125 C-57.14486581 851.09561769 -50.72434504 857.52883228 -43.80078125 863.30078125 C-42.00601023 864.85437012 -40.34448429 866.43839287 -38.66796875 868.11328125 C-37.59157926 869.13457159 -36.5147548 870.15540368 -35.4375 871.17578125 C-34.73016724 871.92202759 -34.73016724 871.92202759 -34.00854492 872.68334961 C-27.81929876 878.37634001 -24.20119792 876.23828125 -14.5625 876.23828125 C-14.5625 846.53828125 -14.5625 816.83828125 -14.5625 786.23828125 C-45.2525 786.23828125 -75.9425 786.23828125 -107.5625 786.23828125 Z M49.4375 786.23828125 C49.4375 815.93828125 49.4375 845.63828125 49.4375 876.23828125 C61.47959339 877.47156954 61.47959339 877.47156954 66.5 873.42578125 C67.82755667 872.04426026 69.13858986 870.64676959 70.4375 869.23828125 C72.25342027 867.55444977 74.08284471 865.88512286 75.921875 864.2265625 C81.79805981 858.88380486 87.4873869 853.37459995 93.10229492 847.75878906 C94.62987416 846.23341412 96.16533582 844.71627453 97.70117188 843.19921875 C104.06511747 836.87089143 109.84827316 830.27233733 115.4375 823.23828125 C116.31231822 822.19875822 117.19242637 821.16361612 118.08203125 820.13671875 C125.13940402 811.92219117 131.31940466 803.1637743 137.4375 794.23828125 C137.84645508 793.65401367 138.25541016 793.06974609 138.67675781 792.46777344 C140.79872749 789.61924295 140.79872749 789.61924295 141.4375 786.23828125 C111.0775 786.23828125 80.7175 786.23828125 49.4375 786.23828125 Z M221.4375 786.23828125 C217.64166377 792.95346293 217.64166377 792.95346293 213.84765625 799.66967773 C210.82480812 805.0223416 207.79463316 810.37063142 204.75 815.7109375 C204.16307373 816.74275146 203.57614746 817.77456543 202.97143555 818.83764648 C201.84262205 820.82167508 200.71135834 822.80431205 199.57739258 824.78540039 C199.06329834 825.6902417 198.5492041 826.59508301 198.01953125 827.52734375 C197.34241089 828.71384521 197.34241089 828.71384521 196.65161133 829.92431641 C195.39976212 832.31020556 194.39453361 834.7212968 193.4375 837.23828125 C222.16866949 828.61431866 250.63249803 807.39909995 272.4375 787.23828125 C272.4375 786.90828125 272.4375 786.57828125 272.4375 786.23828125 C255.6075 786.23828125 238.7775 786.23828125 221.4375 786.23828125 Z " fill="#08105E" transform="translate(453.5625,-0.23828125)"/>
<path d="M0 0 C0.66 0.33 1.32 0.66 2 1 C-14.17 17.17 -30.34 33.34 -47 50 C-47 46.48445271 -46.59821876 46.20129094 -44.2734375 43.76171875 C-43.66435547 43.11702637 -43.05527344 42.47233398 -42.42773438 41.80810547 C-41.75033203 41.10830566 -41.07292969 40.40850586 -40.375 39.6875 C-39.67439453 38.95418457 -38.97378906 38.22086914 -38.25195312 37.46533203 C-32.07193317 31.0329301 -25.79485323 24.69480422 -19.5 18.375 C-18.58138184 17.45162842 -17.66276367 16.52825684 -16.71630859 15.5769043 C-11.63750883 10.51057294 -6.45158406 5.66121239 -1 1 C-0.67 0.67 -0.34 0.34 0 0 Z " fill="#020419" transform="translate(161,115)"/>
<path d="M0 0 C4.8274799 1.41292095 8.7162359 3.42974154 13 6 C12.01 6.495 12.01 6.495 11 7 C8.64018187 6.06421005 6.30368736 5.06652192 4 4 C4 4.99 4 5.98 4 7 C0 2.25 0 2.25 0 0 Z " fill="#000000" transform="translate(644,107)"/>
</svg>
